<mxfile host="65bd71144e">
    <diagram id="iQcdF0jkVVMsuRZzsWMf" name="クラス構成">
        <mxGraphModel dx="1766" dy="1981" grid="1" gridSize="10" guides="1" tooltips="1" connect="1" arrows="1" fold="1" page="1" pageScale="1" pageWidth="827" pageHeight="1169" math="0" shadow="0">
            <root>
                <mxCell id="0"/>
                <mxCell id="1" parent="0"/>
                <mxCell id="0getxHlwL57m-_ICJ7F5-20" style="edgeStyle=orthogonalEdgeStyle;rounded=0;orthogonalLoop=1;jettySize=auto;html=1;exitX=0.461;exitY=1.181;exitDx=0;exitDy=0;fontSize=16;exitPerimeter=0;" parent="1" source="1QngXTY0XAQloPQxA5kK-16" target="0getxHlwL57m-_ICJ7F5-16" edge="1">
                    <mxGeometry relative="1" as="geometry"/>
                </mxCell>
                <mxCell id="0getxHlwL57m-_ICJ7F5-21" style="edgeStyle=orthogonalEdgeStyle;rounded=0;orthogonalLoop=1;jettySize=auto;html=1;exitX=0;exitY=0.5;exitDx=0;exitDy=0;entryX=0.5;entryY=0;entryDx=0;entryDy=0;fontSize=16;startArrow=classic;startFill=1;" parent="1" source="6" target="0getxHlwL57m-_ICJ7F5-17" edge="1">
                    <mxGeometry relative="1" as="geometry"/>
                </mxCell>
                <mxCell id="6" value="db.js" style="rounded=0;whiteSpace=wrap;html=1;fontSize=16;verticalAlign=top;strokeColor=#0000FF;strokeWidth=2;" parent="1" vertex="1">
                    <mxGeometry x="420" y="20" width="230" height="110" as="geometry"/>
                </mxCell>
                <mxCell id="7" value="mysqlサーバ" style="shape=cylinder3;whiteSpace=wrap;html=1;boundedLbl=1;backgroundOutline=1;size=15;" parent="1" vertex="1">
                    <mxGeometry x="425" y="-230" width="110" height="95" as="geometry"/>
                </mxCell>
                <mxCell id="0getxHlwL57m-_ICJ7F5-13" value="&lt;font style=&quot;font-size: 16px&quot;&gt;main.ts&lt;br&gt;&lt;br&gt;&lt;br&gt;&lt;/font&gt;" style="rounded=0;whiteSpace=wrap;html=1;fontSize=16;align=center;verticalAlign=top;strokeColor=#0000FF;strokeWidth=2;" parent="1" vertex="1">
                    <mxGeometry x="-130" y="10" width="200" height="100" as="geometry"/>
                </mxCell>
                <mxCell id="0getxHlwL57m-_ICJ7F5-16" value="&lt;font style=&quot;font-size: 16px&quot;&gt;reply-msg.js&lt;br&gt;&lt;/font&gt;" style="rounded=0;whiteSpace=wrap;html=1;fontSize=16;align=center;verticalAlign=top;strokeColor=#0000FF;strokeWidth=2;" parent="1" vertex="1">
                    <mxGeometry x="414" y="230" width="230" height="100" as="geometry"/>
                </mxCell>
                <mxCell id="0getxHlwL57m-_ICJ7F5-17" value="&lt;font style=&quot;font-size: 16px&quot;&gt;push-msg.js&lt;br&gt;&lt;/font&gt;" style="rounded=0;whiteSpace=wrap;html=1;fontSize=16;align=center;verticalAlign=top;strokeColor=#0000FF;strokeWidth=2;" parent="1" vertex="1">
                    <mxGeometry x="120" y="220" width="230" height="100" as="geometry"/>
                </mxCell>
                <mxCell id="12" style="edgeStyle=orthogonalEdgeStyle;rounded=0;orthogonalLoop=1;jettySize=auto;html=1;exitX=1;exitY=0.5;exitDx=0;exitDy=0;entryX=1;entryY=0.5;entryDx=0;entryDy=0;" parent="1" source="0getxHlwL57m-_ICJ7F5-15" target="0getxHlwL57m-_ICJ7F5-16" edge="1">
                    <mxGeometry relative="1" as="geometry"/>
                </mxCell>
                <mxCell id="0getxHlwL57m-_ICJ7F5-15" value="&lt;font style=&quot;font-size: 16px&quot;&gt;linebot.js&lt;br&gt;&lt;/font&gt;" style="rounded=0;whiteSpace=wrap;html=1;fontSize=16;align=center;verticalAlign=top;strokeColor=#0000FF;strokeWidth=2;" parent="1" vertex="1">
                    <mxGeometry x="424" y="450" width="230" height="100" as="geometry"/>
                </mxCell>
                <mxCell id="0getxHlwL57m-_ICJ7F5-22" value="ultrahook" style="shape=cube;whiteSpace=wrap;html=1;boundedLbl=1;backgroundOutline=1;darkOpacity=0.05;darkOpacity2=0.1;fontSize=16;align=center;verticalAlign=middle;" parent="1" vertex="1">
                    <mxGeometry x="449" y="730" width="180" height="85" as="geometry"/>
                </mxCell>
                <mxCell id="0getxHlwL57m-_ICJ7F5-28" value="" style="shape=flexArrow;endArrow=classic;startArrow=classic;html=1;fontSize=16;strokeWidth=1;fillColor=#0050ef;strokeColor=#001DBC;width=8;" parent="1" source="0getxHlwL57m-_ICJ7F5-22" edge="1">
                    <mxGeometry width="100" height="100" relative="1" as="geometry">
                        <mxPoint x="454" y="640" as="sourcePoint"/>
                        <mxPoint x="539" y="610" as="targetPoint"/>
                    </mxGeometry>
                </mxCell>
                <mxCell id="0getxHlwL57m-_ICJ7F5-29" value="https" style="text;html=1;fillColor=none;align=center;verticalAlign=middle;whiteSpace=wrap;rounded=0;fontSize=16;strokeColor=#f0f0f0;" parent="1" vertex="1">
                    <mxGeometry x="553" y="665" width="90" height="30" as="geometry"/>
                </mxCell>
                <mxCell id="0getxHlwL57m-_ICJ7F5-31" value="Express" style="shape=callout;whiteSpace=wrap;html=1;perimeter=calloutPerimeter;fontSize=14;align=center;verticalAlign=middle;flipV=1;position2=0.5;size=30;position=0.33;base=40;strokeColor=#FF8000;" parent="1" vertex="1">
                    <mxGeometry x="414" y="530" width="120" height="80" as="geometry"/>
                </mxCell>
                <mxCell id="0getxHlwL57m-_ICJ7F5-32" value="linebot-sdk" style="shape=callout;whiteSpace=wrap;html=1;perimeter=calloutPerimeter;fontSize=14;align=center;verticalAlign=middle;flipV=1;position2=0.5;size=30;position=0.33;base=40;strokeColor=#FF8000;" parent="1" vertex="1">
                    <mxGeometry x="553" y="530" width="120" height="80" as="geometry"/>
                </mxCell>
                <mxCell id="0getxHlwL57m-_ICJ7F5-33" value="mysql" style="shape=callout;whiteSpace=wrap;html=1;perimeter=calloutPerimeter;fontSize=14;align=center;verticalAlign=middle;flipV=0;position2=0.5;size=30;position=0.33;base=40;strokeColor=#FF8000;" parent="1" vertex="1">
                    <mxGeometry x="420" y="-30" width="120" height="80" as="geometry"/>
                </mxCell>
                <mxCell id="0getxHlwL57m-_ICJ7F5-34" value="" style="shape=flexArrow;endArrow=classic;startArrow=classic;html=1;fontSize=16;strokeWidth=1;fillColor=#0050ef;strokeColor=#001DBC;width=8;" parent="1" edge="1">
                    <mxGeometry width="100" height="100" relative="1" as="geometry">
                        <mxPoint x="538.41" y="935" as="sourcePoint"/>
                        <mxPoint x="538.41" y="815" as="targetPoint"/>
                    </mxGeometry>
                </mxCell>
                <mxCell id="0getxHlwL57m-_ICJ7F5-35" value="LINEのサーバ(?)" style="shape=cube;whiteSpace=wrap;html=1;boundedLbl=1;backgroundOutline=1;darkOpacity=0.05;darkOpacity2=0.1;fontSize=16;align=center;verticalAlign=middle;" parent="1" vertex="1">
                    <mxGeometry x="449" y="930" width="180" height="85" as="geometry"/>
                </mxCell>
                <mxCell id="0getxHlwL57m-_ICJ7F5-36" value="" style="shape=flexArrow;endArrow=classic;startArrow=classic;html=1;fontSize=14;strokeWidth=1;fillColor=#60a917;strokeColor=#2D7600;width=8;entryX=0.5;entryY=0;entryDx=0;entryDy=0;entryPerimeter=0;exitX=0.5;exitY=1;exitDx=0;exitDy=0;exitPerimeter=0;" parent="1" source="7" target="0getxHlwL57m-_ICJ7F5-33" edge="1">
                    <mxGeometry width="100" height="100" relative="1" as="geometry">
                        <mxPoint x="730" y="-120" as="sourcePoint"/>
                        <mxPoint x="720" y="-30" as="targetPoint"/>
                    </mxGeometry>
                </mxCell>
                <mxCell id="1QngXTY0XAQloPQxA5kK-10" value="すべてのモジュールの&lt;br&gt;初期処理を実行する" style="text;html=1;strokeColor=none;fillColor=none;align=center;verticalAlign=middle;whiteSpace=wrap;rounded=0;" parent="1" vertex="1">
                    <mxGeometry x="-130" y="40" width="190" height="70" as="geometry"/>
                </mxCell>
                <mxCell id="10" style="edgeStyle=orthogonalEdgeStyle;rounded=0;orthogonalLoop=1;jettySize=auto;html=1;exitX=0.5;exitY=1;exitDx=0;exitDy=0;entryX=0;entryY=0.5;entryDx=0;entryDy=0;" parent="1" source="1QngXTY0XAQloPQxA5kK-13" target="1QngXTY0XAQloPQxA5kK-15" edge="1">
                    <mxGeometry relative="1" as="geometry"/>
                </mxCell>
                <mxCell id="1QngXTY0XAQloPQxA5kK-13" value="指定時刻にメッセージを&lt;br&gt;送信する" style="text;html=1;strokeColor=none;fillColor=none;align=center;verticalAlign=middle;whiteSpace=wrap;rounded=0;" parent="1" vertex="1">
                    <mxGeometry x="140" y="250" width="190" height="70" as="geometry"/>
                </mxCell>
                <mxCell id="11" style="edgeStyle=orthogonalEdgeStyle;rounded=0;orthogonalLoop=1;jettySize=auto;html=1;exitX=0.5;exitY=1;exitDx=0;exitDy=0;entryX=0.5;entryY=0;entryDx=0;entryDy=0;" parent="1" source="1QngXTY0XAQloPQxA5kK-14" target="0getxHlwL57m-_ICJ7F5-15" edge="1">
                    <mxGeometry relative="1" as="geometry"/>
                </mxCell>
                <mxCell id="1QngXTY0XAQloPQxA5kK-14" value="受信したメッセージに対して&lt;br&gt;送信を行う" style="text;html=1;strokeColor=none;fillColor=none;align=center;verticalAlign=middle;whiteSpace=wrap;rounded=0;" parent="1" vertex="1">
                    <mxGeometry x="434" y="260" width="190" height="70" as="geometry"/>
                </mxCell>
                <mxCell id="1QngXTY0XAQloPQxA5kK-15" value="LINEのI/O" style="text;html=1;strokeColor=none;fillColor=none;align=center;verticalAlign=middle;whiteSpace=wrap;rounded=0;" parent="1" vertex="1">
                    <mxGeometry x="439" y="480" width="190" height="70" as="geometry"/>
                </mxCell>
                <mxCell id="1QngXTY0XAQloPQxA5kK-16" value="DBのI/O" style="text;html=1;strokeColor=none;fillColor=none;align=center;verticalAlign=middle;whiteSpace=wrap;rounded=0;" parent="1" vertex="1">
                    <mxGeometry x="442" y="50" width="190" height="70" as="geometry"/>
                </mxCell>
                <mxCell id="1QngXTY0XAQloPQxA5kK-17" value="&lt;font style=&quot;font-size: 16px&quot;&gt;log.ts&lt;br&gt;&lt;br&gt;&lt;br&gt;&lt;/font&gt;" style="rounded=0;whiteSpace=wrap;html=1;fontSize=16;align=center;verticalAlign=top;strokeColor=#0000FF;strokeWidth=2;" parent="1" vertex="1">
                    <mxGeometry x="-130" y="170" width="200" height="100" as="geometry"/>
                </mxCell>
                <mxCell id="1QngXTY0XAQloPQxA5kK-18" value="ログ機能" style="text;html=1;strokeColor=none;fillColor=none;align=center;verticalAlign=middle;whiteSpace=wrap;rounded=0;" parent="1" vertex="1">
                    <mxGeometry x="-130" y="200" width="190" height="70" as="geometry"/>
                </mxCell>
                <mxCell id="1QngXTY0XAQloPQxA5kK-19" value="&lt;font style=&quot;font-size: 16px&quot;&gt;pjutil.ts&lt;br&gt;&lt;br&gt;&lt;br&gt;&lt;/font&gt;" style="rounded=0;whiteSpace=wrap;html=1;fontSize=16;align=center;verticalAlign=top;strokeColor=#0000FF;strokeWidth=2;" parent="1" vertex="1">
                    <mxGeometry x="-130" y="310" width="200" height="100" as="geometry"/>
                </mxCell>
                <mxCell id="1QngXTY0XAQloPQxA5kK-20" value="util機能" style="text;html=1;strokeColor=none;fillColor=none;align=center;verticalAlign=middle;whiteSpace=wrap;rounded=0;" parent="1" vertex="1">
                    <mxGeometry x="-130" y="340" width="190" height="70" as="geometry"/>
                </mxCell>
                <mxCell id="0RPRVKAGxEcnr0ICsQNu-9" style="edgeStyle=none;rounded=0;orthogonalLoop=1;jettySize=auto;html=1;exitX=1;exitY=0.5;exitDx=0;exitDy=0;entryX=0;entryY=0.25;entryDx=0;entryDy=0;startArrow=none;startFill=0;shape=flexArrow;fillColor=#fa6800;strokeColor=#C73500;" parent="1" source="0RPRVKAGxEcnr0ICsQNu-7" target="1QngXTY0XAQloPQxA5kK-10" edge="1">
                    <mxGeometry relative="1" as="geometry"/>
                </mxCell>
                <mxCell id="0RPRVKAGxEcnr0ICsQNu-7" value="Node 実行" style="shape=hexagon;perimeter=hexagonPerimeter2;whiteSpace=wrap;html=1;fixedSize=1;fontSize=14;" parent="1" vertex="1">
                    <mxGeometry x="-430" y="18" width="180" height="80" as="geometry"/>
                </mxCell>
                <mxCell id="13" value="&lt;font style=&quot;font-size: 16px&quot;&gt;weather.js&lt;br&gt;&lt;/font&gt;" style="rounded=0;whiteSpace=wrap;html=1;fontSize=16;align=center;verticalAlign=top;strokeColor=#0000FF;strokeWidth=2;" parent="1" vertex="1">
                    <mxGeometry x="750" y="230" width="230" height="100" as="geometry"/>
                </mxCell>
                <mxCell id="15" style="edgeStyle=orthogonalEdgeStyle;rounded=0;orthogonalLoop=1;jettySize=auto;html=1;exitX=0.5;exitY=1;exitDx=0;exitDy=0;entryX=1;entryY=0.75;entryDx=0;entryDy=0;" parent="1" source="14" target="0getxHlwL57m-_ICJ7F5-15" edge="1">
                    <mxGeometry relative="1" as="geometry"/>
                </mxCell>
                <mxCell id="14" value="天気予報情報の取得" style="text;html=1;strokeColor=none;fillColor=none;align=center;verticalAlign=middle;whiteSpace=wrap;rounded=0;" parent="1" vertex="1">
                    <mxGeometry x="770" y="260" width="190" height="70" as="geometry"/>
                </mxCell>
                <mxCell id="16" value="OpneWeatherAPI" style="shape=cube;whiteSpace=wrap;html=1;boundedLbl=1;backgroundOutline=1;darkOpacity=0.05;darkOpacity2=0.1;fontSize=16;align=center;verticalAlign=middle;" parent="1" vertex="1">
                    <mxGeometry x="860" y="32.5" width="180" height="85" as="geometry"/>
                </mxCell>
                <mxCell id="17" value="" style="shape=flexArrow;endArrow=classic;startArrow=classic;html=1;fontSize=16;strokeWidth=1;fillColor=#0050ef;strokeColor=#001DBC;width=8;exitX=0.5;exitY=0;exitDx=0;exitDy=0;entryX=0.509;entryY=0.942;entryDx=0;entryDy=0;entryPerimeter=0;edgeStyle=orthogonalEdgeStyle;" parent="1" source="13" target="16" edge="1">
                    <mxGeometry width="100" height="100" relative="1" as="geometry">
                        <mxPoint x="1075" y="12.5" as="sourcePoint"/>
                        <mxPoint x="865" y="120" as="targetPoint"/>
                    </mxGeometry>
                </mxCell>
                <mxCell id="18" value="http" style="text;html=1;fillColor=none;align=center;verticalAlign=middle;whiteSpace=wrap;rounded=0;fontSize=16;strokeColor=#f0f0f0;" parent="1" vertex="1">
                    <mxGeometry x="980" y="170" width="90" height="30" as="geometry"/>
                </mxCell>
                <mxCell id="19" value="push_msg" style="shape=table;startSize=30;container=1;collapsible=0;childLayout=tableLayout;fixedRows=1;rowLines=0;fontStyle=1;align=center;" parent="1" vertex="1">
                    <mxGeometry x="580" y="-300" width="180" height="150" as="geometry"/>
                </mxCell>
                <mxCell id="20" value="" style="shape=partialRectangle;html=1;whiteSpace=wrap;collapsible=0;dropTarget=0;pointerEvents=0;fillColor=none;top=0;left=0;bottom=1;right=0;points=[[0,0.5],[1,0.5]];portConstraint=eastwest;" parent="19" vertex="1">
                    <mxGeometry y="30" width="180" height="30" as="geometry"/>
                </mxCell>
                <mxCell id="21" value="1" style="shape=partialRectangle;html=1;whiteSpace=wrap;connectable=0;fillColor=none;top=0;left=0;bottom=0;right=0;overflow=hidden;" parent="20" vertex="1">
                    <mxGeometry width="40" height="30" as="geometry"/>
                </mxCell>
                <mxCell id="22" value="Value 1" style="shape=partialRectangle;html=1;whiteSpace=wrap;connectable=0;fillColor=none;top=0;left=0;bottom=0;right=0;align=left;spacingLeft=6;overflow=hidden;" parent="20" vertex="1">
                    <mxGeometry x="40" width="140" height="30" as="geometry"/>
                </mxCell>
                <mxCell id="23" value="" style="shape=partialRectangle;html=1;whiteSpace=wrap;collapsible=0;dropTarget=0;pointerEvents=0;fillColor=none;top=0;left=0;bottom=0;right=0;points=[[0,0.5],[1,0.5]];portConstraint=eastwest;" parent="19" vertex="1">
                    <mxGeometry y="60" width="180" height="30" as="geometry"/>
                </mxCell>
                <mxCell id="24" value="2" style="shape=partialRectangle;html=1;whiteSpace=wrap;connectable=0;fillColor=none;top=0;left=0;bottom=0;right=0;overflow=hidden;" parent="23" vertex="1">
                    <mxGeometry width="40" height="30" as="geometry"/>
                </mxCell>
                <mxCell id="25" value="Value 2" style="shape=partialRectangle;html=1;whiteSpace=wrap;connectable=0;fillColor=none;top=0;left=0;bottom=0;right=0;align=left;spacingLeft=6;overflow=hidden;" parent="23" vertex="1">
                    <mxGeometry x="40" width="140" height="30" as="geometry"/>
                </mxCell>
                <mxCell id="26" value="" style="shape=partialRectangle;html=1;whiteSpace=wrap;collapsible=0;dropTarget=0;pointerEvents=0;fillColor=none;top=0;left=0;bottom=0;right=0;points=[[0,0.5],[1,0.5]];portConstraint=eastwest;" parent="19" vertex="1">
                    <mxGeometry y="90" width="180" height="30" as="geometry"/>
                </mxCell>
                <mxCell id="27" value="3" style="shape=partialRectangle;html=1;whiteSpace=wrap;connectable=0;fillColor=none;top=0;left=0;bottom=0;right=0;overflow=hidden;" parent="26" vertex="1">
                    <mxGeometry width="40" height="30" as="geometry"/>
                </mxCell>
                <mxCell id="28" value="Value 3" style="shape=partialRectangle;html=1;whiteSpace=wrap;connectable=0;fillColor=none;top=0;left=0;bottom=0;right=0;align=left;spacingLeft=6;overflow=hidden;" parent="26" vertex="1">
                    <mxGeometry x="40" width="140" height="30" as="geometry"/>
                </mxCell>
                <mxCell id="29" value="reply_msg" style="shape=table;startSize=30;container=1;collapsible=0;childLayout=tableLayout;fixedRows=1;rowLines=0;fontStyle=1;align=center;" parent="1" vertex="1">
                    <mxGeometry x="810" y="-300" width="180" height="150" as="geometry"/>
                </mxCell>
                <mxCell id="30" value="" style="shape=partialRectangle;html=1;whiteSpace=wrap;collapsible=0;dropTarget=0;pointerEvents=0;fillColor=none;top=0;left=0;bottom=1;right=0;points=[[0,0.5],[1,0.5]];portConstraint=eastwest;" parent="29" vertex="1">
                    <mxGeometry y="30" width="180" height="30" as="geometry"/>
                </mxCell>
                <mxCell id="31" value="1" style="shape=partialRectangle;html=1;whiteSpace=wrap;connectable=0;fillColor=none;top=0;left=0;bottom=0;right=0;overflow=hidden;" parent="30" vertex="1">
                    <mxGeometry width="40" height="30" as="geometry"/>
                </mxCell>
                <mxCell id="32" value="Value 1" style="shape=partialRectangle;html=1;whiteSpace=wrap;connectable=0;fillColor=none;top=0;left=0;bottom=0;right=0;align=left;spacingLeft=6;overflow=hidden;" parent="30" vertex="1">
                    <mxGeometry x="40" width="140" height="30" as="geometry"/>
                </mxCell>
                <mxCell id="33" value="" style="shape=partialRectangle;html=1;whiteSpace=wrap;collapsible=0;dropTarget=0;pointerEvents=0;fillColor=none;top=0;left=0;bottom=0;right=0;points=[[0,0.5],[1,0.5]];portConstraint=eastwest;" parent="29" vertex="1">
                    <mxGeometry y="60" width="180" height="30" as="geometry"/>
                </mxCell>
                <mxCell id="34" value="2" style="shape=partialRectangle;html=1;whiteSpace=wrap;connectable=0;fillColor=none;top=0;left=0;bottom=0;right=0;overflow=hidden;" parent="33" vertex="1">
                    <mxGeometry width="40" height="30" as="geometry"/>
                </mxCell>
                <mxCell id="35" value="Value 2" style="shape=partialRectangle;html=1;whiteSpace=wrap;connectable=0;fillColor=none;top=0;left=0;bottom=0;right=0;align=left;spacingLeft=6;overflow=hidden;" parent="33" vertex="1">
                    <mxGeometry x="40" width="140" height="30" as="geometry"/>
                </mxCell>
                <mxCell id="36" value="" style="shape=partialRectangle;html=1;whiteSpace=wrap;collapsible=0;dropTarget=0;pointerEvents=0;fillColor=none;top=0;left=0;bottom=0;right=0;points=[[0,0.5],[1,0.5]];portConstraint=eastwest;" parent="29" vertex="1">
                    <mxGeometry y="90" width="180" height="30" as="geometry"/>
                </mxCell>
                <mxCell id="37" value="3" style="shape=partialRectangle;html=1;whiteSpace=wrap;connectable=0;fillColor=none;top=0;left=0;bottom=0;right=0;overflow=hidden;" parent="36" vertex="1">
                    <mxGeometry width="40" height="30" as="geometry"/>
                </mxCell>
                <mxCell id="38" value="Value 3" style="shape=partialRectangle;html=1;whiteSpace=wrap;connectable=0;fillColor=none;top=0;left=0;bottom=0;right=0;align=left;spacingLeft=6;overflow=hidden;" parent="36" vertex="1">
                    <mxGeometry x="40" width="140" height="30" as="geometry"/>
                </mxCell>
                <mxCell id="39" value="&lt;font&gt;config.ts&lt;br&gt;&lt;br&gt;&lt;font style=&quot;font-size: 10px&quot;&gt;設定ファイル I/O&lt;/font&gt;&lt;br&gt;&lt;/font&gt;" style="rounded=0;whiteSpace=wrap;html=1;fontSize=16;align=center;verticalAlign=top;strokeColor=#0000FF;strokeWidth=2;" parent="1" vertex="1">
                    <mxGeometry x="-130" y="440" width="200" height="100" as="geometry"/>
                </mxCell>
            </root>
        </mxGraphModel>
    </diagram>
    <diagram id="JAtojcizl9UCUMgjc_SB" name="モジュール構成">
        <mxGraphModel dx="1878" dy="1624" grid="1" gridSize="10" guides="1" tooltips="1" connect="1" arrows="1" fold="1" page="1" pageScale="1" pageWidth="827" pageHeight="1169" math="0" shadow="0">
            <root>
                <mxCell id="_8Po-wBYYCaMSNTo6YPL-0"/>
                <mxCell id="_8Po-wBYYCaMSNTo6YPL-1" parent="_8Po-wBYYCaMSNTo6YPL-0"/>
                <mxCell id="AkPLaLbuj1hAO9KtYMcW-0" value="weather.js" style="rounded=0;whiteSpace=wrap;html=1;align=left;verticalAlign=top;fontSize=16;" parent="_8Po-wBYYCaMSNTo6YPL-1" vertex="1">
                    <mxGeometry x="911.5" y="1410" width="448.5" height="330" as="geometry"/>
                </mxCell>
                <mxCell id="AkPLaLbuj1hAO9KtYMcW-7" value="登録ハンドラー" style="rounded=1;whiteSpace=wrap;html=1;align=center;verticalAlign=top;" parent="_8Po-wBYYCaMSNTo6YPL-1" vertex="1">
                    <mxGeometry x="950" y="1520" width="380" height="210" as="geometry"/>
                </mxCell>
                <mxCell id="8zqYf6aub6REDBF8JO0k-0" value="interval-msg.js" style="rounded=0;whiteSpace=wrap;html=1;align=left;verticalAlign=top;fontSize=16;" parent="_8Po-wBYYCaMSNTo6YPL-1" vertex="1">
                    <mxGeometry x="900" y="100" width="403" height="490" as="geometry"/>
                </mxCell>
                <mxCell id="8zqYf6aub6REDBF8JO0k-1" value="db" style="rounded=0;whiteSpace=wrap;html=1;align=left;verticalAlign=top;fontSize=16;" parent="_8Po-wBYYCaMSNTo6YPL-1" vertex="1">
                    <mxGeometry x="1450" y="440" width="470" height="410" as="geometry"/>
                </mxCell>
                <mxCell id="8zqYf6aub6REDBF8JO0k-3" value="init (connect)" style="rounded=1;whiteSpace=wrap;html=1;align=center;verticalAlign=top;" parent="_8Po-wBYYCaMSNTo6YPL-1" vertex="1">
                    <mxGeometry x="1526.5" y="480" width="330" height="30" as="geometry"/>
                </mxCell>
                <mxCell id="8zqYf6aub6REDBF8JO0k-4" value="end&lt;span style=&quot;color: rgba(0 , 0 , 0 , 0) ; font-family: monospace ; font-size: 0px&quot;&gt;%3CmxGraphModel%3E%3Croot%3E%3CmxCell%20id%3D%220%22%2F%3E%3CmxCell%20id%3D%221%22%20parent%3D%220%22%2F%3E%3CmxCell%20id%3D%222%22%20value%3D%22init%20(connect)%22%20style%3D%22rounded%3D1%3BwhiteSpace%3Dwrap%3Bhtml%3D1%3Balign%3Dcenter%3BverticalAlign%3Dtop%3B%22%20vertex%3D%221%22%20parent%3D%221%22%3E%3CmxGeometry%20x%3D%221406.5%22%20y%3D%2295%22%20width%3D%22330%22%20height%3D%2230%22%20as%3D%22geometry%22%2F%3E%3C%2FmxCell%3E%3C%2Froot%3E%3C%2FmxGraphModel%3E&lt;/span&gt;" style="rounded=1;whiteSpace=wrap;html=1;align=center;verticalAlign=top;" parent="_8Po-wBYYCaMSNTo6YPL-1" vertex="1">
                    <mxGeometry x="1526.5" y="530" width="330" height="30" as="geometry"/>
                </mxCell>
                <mxCell id="8zqYf6aub6REDBF8JO0k-5" value="pushメッセージ GET()&lt;span style=&quot;color: rgba(0 , 0 , 0 , 0) ; font-family: monospace ; font-size: 0px&quot;&gt;%3CmxGraphModel%3E%3Croot%3E%3CmxCell%20id%3D%220%22%2F%3E%3CmxCell%20id%3D%221%22%20parent%3D%220%22%2F%3E%3CmxCell%20id%3D%222%22%20value%3D%22end%26lt%3Bspan%20style%3D%26quot%3Bcolor%3A%20rgba(0%20%2C%200%20%2C%200%20%2C%200)%20%3B%20font-family%3A%20monospace%20%3B%20font-size%3A%200px%26quot%3B%26gt%3B%253CmxGraphModel%253E%253Croot%253E%253CmxCell%2520id%253D%25220%2522%252F%253E%253CmxCell%2520id%253D%25221%2522%2520parent%253D%25220%2522%252F%253E%253CmxCell%2520id%253D%25222%2522%2520value%253D%2522init%2520(connect)%2522%2520style%253D%2522rounded%253D1%253BwhiteSpace%253Dwrap%253Bhtml%253D1%253Balign%253Dcenter%253BverticalAlign%253Dtop%253B%2522%2520vertex%253D%25221%2522%2520parent%253D%25221%2522%253E%253CmxGeometry%2520x%253D%25221406.5%2522%2520y%253D%252295%2522%2520width%253D%2522330%2522%2520height%253D%252230%2522%2520as%253D%2522geometry%2522%252F%253E%253C%252FmxCell%253E%253C%252Froot%253E%253C%252FmxGraphModel%253E%26lt%3B%2Fspan%26gt%3B%22%20style%3D%22rounded%3D1%3BwhiteSpace%3Dwrap%3Bhtml%3D1%3Balign%3Dcenter%3BverticalAlign%3Dtop%3B%22%20vertex%3D%221%22%20parent%3D%221%22%3E%3CmxGeometry%20x%3D%221416.5%22%20y%3D%22310%22%20width%3D%22330%22%20height%3D%2230%22%20as%3D%22geometry%22%2F%3E%3C%2FmxCell%3E%3C%2Froot%3E%3C%2FmxGraphModel%3E&lt;/span&gt;" style="rounded=1;whiteSpace=wrap;html=1;align=center;verticalAlign=top;" parent="_8Po-wBYYCaMSNTo6YPL-1" vertex="1">
                    <mxGeometry x="1526.5" y="610" width="330" height="30" as="geometry"/>
                </mxCell>
                <mxCell id="AkPLaLbuj1hAO9KtYMcW-20" style="edgeStyle=none;rounded=0;orthogonalLoop=1;jettySize=auto;html=1;exitX=1;exitY=0.5;exitDx=0;exitDy=0;entryX=0.017;entryY=0.669;entryDx=0;entryDy=0;entryPerimeter=0;fontSize=16;strokeWidth=3;fillColor=#fa6800;strokeColor=#C73500;" parent="_8Po-wBYYCaMSNTo6YPL-1" source="8zqYf6aub6REDBF8JO0k-6" target="AkPLaLbuj1hAO9KtYMcW-18" edge="1">
                    <mxGeometry relative="1" as="geometry"/>
                </mxCell>
                <mxCell id="8zqYf6aub6REDBF8JO0k-6" value="doneパラメータ SET()" style="rounded=1;whiteSpace=wrap;html=1;align=center;verticalAlign=top;" parent="_8Po-wBYYCaMSNTo6YPL-1" vertex="1">
                    <mxGeometry x="1526.5" y="685" width="330" height="30" as="geometry"/>
                </mxCell>
                <mxCell id="8zqYf6aub6REDBF8JO0k-7" value="日付チェック" style="rounded=1;whiteSpace=wrap;html=1;align=center;verticalAlign=top;" parent="_8Po-wBYYCaMSNTo6YPL-1" vertex="1">
                    <mxGeometry x="1013" y="270" width="200" height="30" as="geometry"/>
                </mxCell>
                <mxCell id="8zqYf6aub6REDBF8JO0k-8" value="" style="endArrow=classic;html=1;exitX=0;exitY=0.5;exitDx=0;exitDy=0;entryX=1;entryY=0.5;entryDx=0;entryDy=0;" parent="_8Po-wBYYCaMSNTo6YPL-1" source="8zqYf6aub6REDBF8JO0k-5" target="8zqYf6aub6REDBF8JO0k-7" edge="1">
                    <mxGeometry width="50" height="50" relative="1" as="geometry">
                        <mxPoint x="1423" y="430" as="sourcePoint"/>
                        <mxPoint x="1473" y="380" as="targetPoint"/>
                    </mxGeometry>
                </mxCell>
                <mxCell id="8zqYf6aub6REDBF8JO0k-9" value="インターバル登録関数" style="rounded=1;whiteSpace=wrap;html=1;align=center;verticalAlign=top;" parent="_8Po-wBYYCaMSNTo6YPL-1" vertex="1">
                    <mxGeometry x="953" y="380" width="330" height="35" as="geometry"/>
                </mxCell>
                <mxCell id="8zqYf6aub6REDBF8JO0k-10" value="" style="endArrow=classic;html=1;entryX=0;entryY=0.5;entryDx=0;entryDy=0;" parent="_8Po-wBYYCaMSNTo6YPL-1" target="8zqYf6aub6REDBF8JO0k-6" edge="1">
                    <mxGeometry width="50" height="50" relative="1" as="geometry">
                        <mxPoint x="1282.9999999999995" y="402" as="sourcePoint"/>
                        <mxPoint x="1124" y="315" as="targetPoint"/>
                    </mxGeometry>
                </mxCell>
                <mxCell id="8zqYf6aub6REDBF8JO0k-11" value="Lineメッセージ送信" style="rounded=1;whiteSpace=wrap;html=1;align=center;verticalAlign=top;" parent="_8Po-wBYYCaMSNTo6YPL-1" vertex="1">
                    <mxGeometry x="953" y="500" width="330" height="30" as="geometry"/>
                </mxCell>
                <mxCell id="8zqYf6aub6REDBF8JO0k-12" value="" style="endArrow=classic;html=1;entryX=0.5;entryY=0;entryDx=0;entryDy=0;" parent="_8Po-wBYYCaMSNTo6YPL-1" source="8zqYf6aub6REDBF8JO0k-9" target="8zqYf6aub6REDBF8JO0k-11" edge="1">
                    <mxGeometry width="50" height="50" relative="1" as="geometry">
                        <mxPoint x="1118" y="490" as="sourcePoint"/>
                        <mxPoint x="1128" y="310" as="targetPoint"/>
                    </mxGeometry>
                </mxCell>
                <mxCell id="8zqYf6aub6REDBF8JO0k-15" value="" style="endArrow=classic;startArrow=classic;html=1;entryX=0.5;entryY=1;entryDx=0;entryDy=0;strokeWidth=1;" parent="_8Po-wBYYCaMSNTo6YPL-1" edge="1">
                    <mxGeometry width="50" height="50" relative="1" as="geometry">
                        <mxPoint x="1116" y="380" as="sourcePoint"/>
                        <mxPoint x="1116" y="300" as="targetPoint"/>
                    </mxGeometry>
                </mxCell>
                <mxCell id="eXda0D7KCYjHa-7Uhezf-1" value="main" style="rounded=0;whiteSpace=wrap;html=1;align=left;verticalAlign=top;fontSize=16;" parent="_8Po-wBYYCaMSNTo6YPL-1" vertex="1">
                    <mxGeometry x="330" y="270" width="403" height="210" as="geometry"/>
                </mxCell>
                <mxCell id="OJCxkMQFeXsLFYM-kX5E-0" value="linebot" style="rounded=0;whiteSpace=wrap;html=1;align=left;verticalAlign=top;fontSize=16;" parent="_8Po-wBYYCaMSNTo6YPL-1" vertex="1">
                    <mxGeometry x="330" y="840" width="403" height="520" as="geometry"/>
                </mxCell>
                <mxCell id="OJCxkMQFeXsLFYM-kX5E-1" value="reply-msg.js" style="rounded=0;whiteSpace=wrap;html=1;align=left;verticalAlign=top;fontSize=16;" parent="_8Po-wBYYCaMSNTo6YPL-1" vertex="1">
                    <mxGeometry x="900" y="970" width="403" height="260" as="geometry"/>
                </mxCell>
                <mxCell id="fkJq1Qhk5DBQASCH0mkc-1" value="main関数&lt;br&gt;&lt;br&gt;&lt;div style=&quot;text-align: left&quot;&gt;&lt;span&gt;・db初期処理&lt;/span&gt;&lt;/div&gt;&lt;div style=&quot;text-align: left&quot;&gt;&lt;span&gt;・linebot初期処理&lt;/span&gt;&lt;/div&gt;&lt;div style=&quot;text-align: left&quot;&gt;&lt;span&gt;・pushインターバルの開始&lt;/span&gt;&lt;/div&gt;" style="rounded=1;whiteSpace=wrap;html=1;align=center;verticalAlign=top;" parent="_8Po-wBYYCaMSNTo6YPL-1" vertex="1">
                    <mxGeometry x="431.5" y="330" width="200" height="100" as="geometry"/>
                </mxCell>
                <mxCell id="fkJq1Qhk5DBQASCH0mkc-3" style="edgeStyle=orthogonalEdgeStyle;rounded=0;orthogonalLoop=1;jettySize=auto;html=1;exitX=0;exitY=0.5;exitDx=0;exitDy=0;entryX=0;entryY=0.75;entryDx=0;entryDy=0;fontSize=14;startArrow=none;startFill=0;endArrow=classic;endFill=1;" parent="_8Po-wBYYCaMSNTo6YPL-1" source="fkJq1Qhk5DBQASCH0mkc-2" target="8zqYf6aub6REDBF8JO0k-9" edge="1">
                    <mxGeometry relative="1" as="geometry"/>
                </mxCell>
                <mxCell id="fkJq1Qhk5DBQASCH0mkc-2" value="インターバル登録関数" style="rounded=1;whiteSpace=wrap;html=1;align=center;verticalAlign=top;" parent="_8Po-wBYYCaMSNTo6YPL-1" vertex="1">
                    <mxGeometry x="953" y="150" width="330" height="35" as="geometry"/>
                </mxCell>
                <mxCell id="fkJq1Qhk5DBQASCH0mkc-14" style="edgeStyle=orthogonalEdgeStyle;rounded=0;orthogonalLoop=1;jettySize=auto;html=1;exitX=0;exitY=0.5;exitDx=0;exitDy=0;entryX=1;entryY=0.5;entryDx=0;entryDy=0;fontSize=14;startArrow=none;startFill=0;endArrow=classic;endFill=1;" parent="_8Po-wBYYCaMSNTo6YPL-1" source="fkJq1Qhk5DBQASCH0mkc-4" target="fkJq1Qhk5DBQASCH0mkc-9" edge="1">
                    <mxGeometry relative="1" as="geometry"/>
                </mxCell>
                <mxCell id="fkJq1Qhk5DBQASCH0mkc-4" value="応答メッセージのGET()" style="rounded=1;whiteSpace=wrap;html=1;align=center;verticalAlign=top;" parent="_8Po-wBYYCaMSNTo6YPL-1" vertex="1">
                    <mxGeometry x="1526.5" y="770" width="330" height="30" as="geometry"/>
                </mxCell>
                <mxCell id="fkJq1Qhk5DBQASCH0mkc-5" value="初期処理&lt;br&gt;&lt;div style=&quot;text-align: left&quot;&gt;&lt;span&gt;・linbot I/Oの初期処理&lt;/span&gt;&lt;/div&gt;&lt;div style=&quot;text-align: left&quot;&gt;&lt;span&gt;・ポート受信待ち&lt;/span&gt;&lt;/div&gt;" style="rounded=1;whiteSpace=wrap;html=1;align=center;verticalAlign=top;" parent="_8Po-wBYYCaMSNTo6YPL-1" vertex="1">
                    <mxGeometry x="366.5" y="900" width="330" height="55" as="geometry"/>
                </mxCell>
                <mxCell id="fkJq1Qhk5DBQASCH0mkc-11" style="edgeStyle=orthogonalEdgeStyle;rounded=0;orthogonalLoop=1;jettySize=auto;html=1;exitX=1;exitY=0.5;exitDx=0;exitDy=0;entryX=0;entryY=0.5;entryDx=0;entryDy=0;fontSize=14;startArrow=none;startFill=0;endArrow=classic;endFill=1;" parent="_8Po-wBYYCaMSNTo6YPL-1" source="fkJq1Qhk5DBQASCH0mkc-6" target="fkJq1Qhk5DBQASCH0mkc-9" edge="1">
                    <mxGeometry relative="1" as="geometry"/>
                </mxCell>
                <mxCell id="fkJq1Qhk5DBQASCH0mkc-6" value="受信関数" style="rounded=1;whiteSpace=wrap;html=1;align=center;verticalAlign=top;" parent="_8Po-wBYYCaMSNTo6YPL-1" vertex="1">
                    <mxGeometry x="366.5" y="1160" width="330" height="30" as="geometry"/>
                </mxCell>
                <mxCell id="AkPLaLbuj1hAO9KtYMcW-14" style="edgeStyle=none;rounded=0;orthogonalLoop=1;jettySize=auto;html=1;exitX=0;exitY=0.5;exitDx=0;exitDy=0;entryX=0.984;entryY=0.573;entryDx=0;entryDy=0;entryPerimeter=0;fillColor=#fa6800;strokeColor=#C73500;strokeWidth=3;" parent="_8Po-wBYYCaMSNTo6YPL-1" source="fkJq1Qhk5DBQASCH0mkc-7" target="AkPLaLbuj1hAO9KtYMcW-11" edge="1">
                    <mxGeometry relative="1" as="geometry"/>
                </mxCell>
                <mxCell id="fkJq1Qhk5DBQASCH0mkc-7" value="reply関数" style="rounded=1;whiteSpace=wrap;html=1;align=center;verticalAlign=top;" parent="_8Po-wBYYCaMSNTo6YPL-1" vertex="1">
                    <mxGeometry x="366.5" y="1240" width="330" height="30" as="geometry"/>
                </mxCell>
                <mxCell id="AkPLaLbuj1hAO9KtYMcW-13" style="edgeStyle=orthogonalEdgeStyle;rounded=0;orthogonalLoop=1;jettySize=auto;html=1;exitX=0;exitY=0.5;exitDx=0;exitDy=0;entryX=1;entryY=0.24;entryDx=0;entryDy=0;entryPerimeter=0;fillColor=#fa6800;strokeColor=#C73500;strokeWidth=3;" parent="_8Po-wBYYCaMSNTo6YPL-1" source="fkJq1Qhk5DBQASCH0mkc-8" target="AkPLaLbuj1hAO9KtYMcW-11" edge="1">
                    <mxGeometry relative="1" as="geometry">
                        <mxPoint x="170" y="1095" as="targetPoint"/>
                    </mxGeometry>
                </mxCell>
                <mxCell id="fkJq1Qhk5DBQASCH0mkc-8" value="push関数" style="rounded=1;whiteSpace=wrap;html=1;align=center;verticalAlign=top;" parent="_8Po-wBYYCaMSNTo6YPL-1" vertex="1">
                    <mxGeometry x="366.5" y="1080" width="330" height="30" as="geometry"/>
                </mxCell>
                <mxCell id="fkJq1Qhk5DBQASCH0mkc-12" style="edgeStyle=orthogonalEdgeStyle;rounded=0;orthogonalLoop=1;jettySize=auto;html=1;exitX=0.5;exitY=1;exitDx=0;exitDy=0;fontSize=14;startArrow=none;startFill=0;endArrow=classic;endFill=1;" parent="_8Po-wBYYCaMSNTo6YPL-1" source="fkJq1Qhk5DBQASCH0mkc-9" target="fkJq1Qhk5DBQASCH0mkc-10" edge="1">
                    <mxGeometry relative="1" as="geometry"/>
                </mxCell>
                <mxCell id="fkJq1Qhk5DBQASCH0mkc-9" value="replyメッセージ検索" style="rounded=1;whiteSpace=wrap;html=1;align=center;verticalAlign=top;" parent="_8Po-wBYYCaMSNTo6YPL-1" vertex="1">
                    <mxGeometry x="948" y="1040" width="330" height="30" as="geometry"/>
                </mxCell>
                <mxCell id="fkJq1Qhk5DBQASCH0mkc-13" style="edgeStyle=orthogonalEdgeStyle;rounded=0;orthogonalLoop=1;jettySize=auto;html=1;exitX=0;exitY=0.5;exitDx=0;exitDy=0;entryX=1;entryY=0.5;entryDx=0;entryDy=0;fontSize=14;startArrow=none;startFill=0;endArrow=classic;endFill=1;" parent="_8Po-wBYYCaMSNTo6YPL-1" source="fkJq1Qhk5DBQASCH0mkc-10" target="fkJq1Qhk5DBQASCH0mkc-7" edge="1">
                    <mxGeometry relative="1" as="geometry">
                        <Array as="points">
                            <mxPoint x="850" y="1145"/>
                            <mxPoint x="850" y="1255"/>
                        </Array>
                    </mxGeometry>
                </mxCell>
                <mxCell id="fkJq1Qhk5DBQASCH0mkc-10" value="replyメッセージ送信" style="rounded=1;whiteSpace=wrap;html=1;align=center;verticalAlign=top;" parent="_8Po-wBYYCaMSNTo6YPL-1" vertex="1">
                    <mxGeometry x="948" y="1130" width="330" height="30" as="geometry"/>
                </mxCell>
                <mxCell id="fkJq1Qhk5DBQASCH0mkc-15" style="edgeStyle=orthogonalEdgeStyle;rounded=0;orthogonalLoop=1;jettySize=auto;html=1;exitX=0.5;exitY=1;exitDx=0;exitDy=0;entryX=1;entryY=0.5;entryDx=0;entryDy=0;fontSize=14;startArrow=none;startFill=0;endArrow=classic;endFill=1;" parent="_8Po-wBYYCaMSNTo6YPL-1" edge="1">
                    <mxGeometry relative="1" as="geometry">
                        <Array as="points">
                            <mxPoint x="1118" y="678"/>
                            <mxPoint x="790" y="678"/>
                            <mxPoint x="790" y="1093"/>
                        </Array>
                        <mxPoint x="1118" y="528" as="sourcePoint"/>
                        <mxPoint x="696.5" y="1093" as="targetPoint"/>
                    </mxGeometry>
                </mxCell>
                <mxCell id="AkPLaLbuj1hAO9KtYMcW-8" style="edgeStyle=orthogonalEdgeStyle;rounded=0;orthogonalLoop=1;jettySize=auto;html=1;exitX=0.5;exitY=1;exitDx=0;exitDy=0;" parent="_8Po-wBYYCaMSNTo6YPL-1" source="AkPLaLbuj1hAO9KtYMcW-1" target="AkPLaLbuj1hAO9KtYMcW-7" edge="1">
                    <mxGeometry relative="1" as="geometry"/>
                </mxCell>
                <mxCell id="AkPLaLbuj1hAO9KtYMcW-1" value="インターバル登録関数" style="rounded=1;whiteSpace=wrap;html=1;align=center;verticalAlign=top;" parent="_8Po-wBYYCaMSNTo6YPL-1" vertex="1">
                    <mxGeometry x="975" y="1440" width="330" height="30" as="geometry"/>
                </mxCell>
                <mxCell id="AkPLaLbuj1hAO9KtYMcW-2" value="天気予報取得" style="rounded=1;whiteSpace=wrap;html=1;align=center;verticalAlign=top;" parent="_8Po-wBYYCaMSNTo6YPL-1" vertex="1">
                    <mxGeometry x="973" y="1580" width="330" height="30" as="geometry"/>
                </mxCell>
                <mxCell id="AkPLaLbuj1hAO9KtYMcW-3" value="天気予報判定" style="rounded=1;whiteSpace=wrap;html=1;align=center;verticalAlign=top;" parent="_8Po-wBYYCaMSNTo6YPL-1" vertex="1">
                    <mxGeometry x="973" y="1630" width="330" height="30" as="geometry"/>
                </mxCell>
                <mxCell id="AkPLaLbuj1hAO9KtYMcW-5" style="edgeStyle=orthogonalEdgeStyle;rounded=0;orthogonalLoop=1;jettySize=auto;html=1;exitX=0;exitY=0.5;exitDx=0;exitDy=0;" parent="_8Po-wBYYCaMSNTo6YPL-1" edge="1">
                    <mxGeometry relative="1" as="geometry">
                        <mxPoint x="697" y="1100" as="targetPoint"/>
                        <mxPoint x="970" y="1715" as="sourcePoint"/>
                        <Array as="points">
                            <mxPoint x="767" y="1715"/>
                            <mxPoint x="767" y="1100"/>
                        </Array>
                    </mxGeometry>
                </mxCell>
                <mxCell id="AkPLaLbuj1hAO9KtYMcW-4" value="天気予報通知" style="rounded=1;whiteSpace=wrap;html=1;align=center;verticalAlign=top;" parent="_8Po-wBYYCaMSNTo6YPL-1" vertex="1">
                    <mxGeometry x="973" y="1698" width="330" height="30" as="geometry"/>
                </mxCell>
                <mxCell id="AkPLaLbuj1hAO9KtYMcW-12" style="rounded=0;orthogonalLoop=1;jettySize=auto;html=1;entryX=0;entryY=0.5;entryDx=0;entryDy=0;fillColor=#1ba1e2;strokeColor=#006EAF;strokeWidth=3;" parent="_8Po-wBYYCaMSNTo6YPL-1" target="fkJq1Qhk5DBQASCH0mkc-6" edge="1">
                    <mxGeometry relative="1" as="geometry">
                        <mxPoint x="183" y="1175" as="sourcePoint"/>
                    </mxGeometry>
                </mxCell>
                <mxCell id="AkPLaLbuj1hAO9KtYMcW-11" value="LINEサーバ" style="shape=cube;whiteSpace=wrap;html=1;boundedLbl=1;backgroundOutline=1;darkOpacity=0.05;darkOpacity2=0.1;fontSize=16;" parent="_8Po-wBYYCaMSNTo6YPL-1" vertex="1">
                    <mxGeometry y="980" width="180" height="480" as="geometry"/>
                </mxCell>
                <mxCell id="AkPLaLbuj1hAO9KtYMcW-17" style="edgeStyle=none;rounded=0;orthogonalLoop=1;jettySize=auto;html=1;exitX=0.013;exitY=0.551;exitDx=0;exitDy=0;exitPerimeter=0;entryX=1;entryY=0.5;entryDx=0;entryDy=0;fontSize=16;strokeWidth=3;fillColor=#1ba1e2;strokeColor=#006EAF;" parent="_8Po-wBYYCaMSNTo6YPL-1" source="AkPLaLbuj1hAO9KtYMcW-16" target="AkPLaLbuj1hAO9KtYMcW-2" edge="1">
                    <mxGeometry relative="1" as="geometry"/>
                </mxCell>
                <mxCell id="AkPLaLbuj1hAO9KtYMcW-16" value="OpneWeather" style="shape=cube;whiteSpace=wrap;html=1;boundedLbl=1;backgroundOutline=1;darkOpacity=0.05;darkOpacity2=0.1;fontSize=16;" parent="_8Po-wBYYCaMSNTo6YPL-1" vertex="1">
                    <mxGeometry x="1534" y="1520" width="236" height="120" as="geometry"/>
                </mxCell>
                <mxCell id="AkPLaLbuj1hAO9KtYMcW-19" style="edgeStyle=none;rounded=0;orthogonalLoop=1;jettySize=auto;html=1;exitX=0;exitY=0.5;exitDx=0;exitDy=0;exitPerimeter=0;entryX=1;entryY=0.75;entryDx=0;entryDy=0;fontSize=16;strokeWidth=3;fillColor=#1ba1e2;strokeColor=#006EAF;" parent="_8Po-wBYYCaMSNTo6YPL-1" source="AkPLaLbuj1hAO9KtYMcW-18" target="8zqYf6aub6REDBF8JO0k-5" edge="1">
                    <mxGeometry relative="1" as="geometry"/>
                </mxCell>
                <mxCell id="AkPLaLbuj1hAO9KtYMcW-18" value="MySQL" style="shape=cylinder3;whiteSpace=wrap;html=1;boundedLbl=1;backgroundOutline=1;size=15;fontSize=16;" parent="_8Po-wBYYCaMSNTo6YPL-1" vertex="1">
                    <mxGeometry x="2140" y="430" width="190" height="400" as="geometry"/>
                </mxCell>
                <mxCell id="AkPLaLbuj1hAO9KtYMcW-21" style="edgeStyle=none;rounded=0;orthogonalLoop=1;jettySize=auto;html=1;exitX=0;exitY=0.5;exitDx=0;exitDy=0;exitPerimeter=0;entryX=1;entryY=0.75;entryDx=0;entryDy=0;fontSize=16;strokeWidth=3;fillColor=#1ba1e2;strokeColor=#006EAF;" parent="_8Po-wBYYCaMSNTo6YPL-1" edge="1">
                    <mxGeometry relative="1" as="geometry">
                        <mxPoint x="2139.9999999999995" y="783.75" as="sourcePoint"/>
                        <mxPoint x="1856.5" y="786.25" as="targetPoint"/>
                    </mxGeometry>
                </mxCell>
                <mxCell id="Uyam2KWWTNrFunA4mzlQ-0" style="edgeStyle=none;rounded=0;orthogonalLoop=1;jettySize=auto;html=1;exitX=0;exitY=0.5;exitDx=0;exitDy=0;entryX=0.984;entryY=0.573;entryDx=0;entryDy=0;entryPerimeter=0;fillColor=#fa6800;strokeColor=#C73500;strokeWidth=3;" edge="1" parent="_8Po-wBYYCaMSNTo6YPL-1">
                    <mxGeometry relative="1" as="geometry">
                        <mxPoint x="249.38" y="60" as="sourcePoint"/>
                        <mxPoint x="59.999999999999886" y="60.039999999999964" as="targetPoint"/>
                    </mxGeometry>
                </mxCell>
                <mxCell id="Uyam2KWWTNrFunA4mzlQ-1" style="rounded=0;orthogonalLoop=1;jettySize=auto;html=1;entryX=0;entryY=0.5;entryDx=0;entryDy=0;fillColor=#1ba1e2;strokeColor=#006EAF;strokeWidth=3;" edge="1" parent="_8Po-wBYYCaMSNTo6YPL-1">
                    <mxGeometry relative="1" as="geometry">
                        <mxPoint x="60" y="100" as="sourcePoint"/>
                        <mxPoint x="243.5" y="100" as="targetPoint"/>
                    </mxGeometry>
                </mxCell>
                <mxCell id="Uyam2KWWTNrFunA4mzlQ-3" value="GET" style="text;html=1;align=center;verticalAlign=middle;resizable=0;points=[];autosize=1;strokeColor=none;fillColor=none;fontSize=19;" vertex="1" parent="_8Po-wBYYCaMSNTo6YPL-1">
                    <mxGeometry x="275" y="45" width="50" height="30" as="geometry"/>
                </mxCell>
                <mxCell id="Uyam2KWWTNrFunA4mzlQ-4" value="SET" style="text;html=1;align=center;verticalAlign=middle;resizable=0;points=[];autosize=1;strokeColor=none;fillColor=none;fontSize=19;" vertex="1" parent="_8Po-wBYYCaMSNTo6YPL-1">
                    <mxGeometry x="275" y="90" width="50" height="30" as="geometry"/>
                </mxCell>
            </root>
        </mxGraphModel>
    </diagram>
</mxfile>